<?xml version="1.0" encoding="UTF-8" standalone="no"?>
<!-- Generator: Adobe Illustrator 16.0.2, SVG Export Plug-In . SVG Version: 6.00 Build 0)  -->

<svg
   xmlns:dc="http://purl.org/dc/elements/1.1/"
   xmlns:cc="http://creativecommons.org/ns#"
   xmlns:rdf="http://www.w3.org/1999/02/22-rdf-syntax-ns#"
   xmlns:svg="http://www.w3.org/2000/svg"
   xmlns="http://www.w3.org/2000/svg"
   xmlns:sodipodi="http://sodipodi.sourceforge.net/DTD/sodipodi-0.dtd"
   xmlns:inkscape="http://www.inkscape.org/namespaces/inkscape"
   version="1.1"
   x="0px"
   y="0px"
   width="3648px"
   height="3928px"
   viewBox="0 0 3648 3928"
   style="enable-background:new 0 0 3648 3928;"
   xml:space="preserve"
   id="svg28"
   sodipodi:docname="logo.svg"
   inkscape:version="0.92.4 (5da689c313, 2019-01-14)"
   inkscape:export-filename="C:\Code\MVCoin\MVCoin\icon\background_2.png"
   inkscape:export-xdpi="96"
   inkscape:export-ydpi="96"><metadata
   id="metadata34"><rdf:RDF><cc:Work
       rdf:about=""><dc:format>image/svg+xml</dc:format><dc:type
         rdf:resource="http://purl.org/dc/dcmitype/StillImage" /><dc:title /></cc:Work></rdf:RDF></metadata><defs
   id="defs32" /><sodipodi:namedview
   pagecolor="#ffffff"
   bordercolor="#666666"
   borderopacity="1"
   objecttolerance="10"
   gridtolerance="10"
   guidetolerance="10"
   inkscape:pageopacity="0"
   inkscape:pageshadow="2"
   inkscape:window-width="1920"
   inkscape:window-height="1048"
   id="namedview30"
   showgrid="false"
   inkscape:zoom="0.16993605"
   inkscape:cx="294.69587"
   inkscape:cy="2280.8645"
   inkscape:window-x="-10"
   inkscape:window-y="-10"
   inkscape:window-maximized="1"
   inkscape:current-layer="layer2" />
<g
   inkscape:groupmode="layer"
   id="layer1"
   inkscape:label="Circle"
   style="display:none"><circle
     id="path36"
     cx="1923.7112"
     cy="1919.9603"
     style="fill:#ffffff;stroke:#ff0000;stroke-width:250;stroke-miterlimit:4;stroke-dasharray:none"
     r="2072.8875" /><circle
     r="1777.4122"
     style="fill:#ffffff;stroke:#ff0000;stroke-width:102.80693817;stroke-miterlimit:4;stroke-dasharray:none"
     cy="1919.9603"
     cx="1923.7112"
     id="circle4622" /></g><g
   inkscape:groupmode="layer"
   id="layer2"
   inkscape:label="Poly"
   style="display:inline"><path
     sodipodi:type="star"
     style="fill:#ff0000;fill-opacity:0;stroke:#ff0000;stroke-width:150;stroke-miterlimit:4;stroke-dasharray:none;stroke-linejoin:round;stroke-linecap:round"
     id="path4618"
     sodipodi:sides="6"
     sodipodi:cx="1921.1018"
     sodipodi:cy="2073.9324"
     sodipodi:r1="1618.0226"
     sodipodi:r2="1401.2487"
     sodipodi:arg1="0.52359878"
     sodipodi:arg2="1.0471976"
     inkscape:flatsided="true"
     inkscape:rounded="0"
     inkscape:randomized="0"
     d="M 3322.3505,2882.9437 1921.1018,3691.955 519.85314,2882.9437 519.85315,1264.9211 1921.1018,455.90979 3322.3505,1264.9211 Z" /></g>



<g
   id="g4583"
   transform="translate(93.211182)"><g
     id="六邊形">
	<polygon
   id="polygon2"
   points="1828.999,736.702 2993,1399.733 2993,2711 1830.5,3403.93 668,2752.864 668,1435.807 "
   style="fill:#f61a25;stroke:#f61a25;stroke-width:12;stroke-miterlimit:10" />
</g><g
     id="口">
	<path
   d="m 891.333,1493.334 845.492,448.459 c 0,0 108.011,66.007 231.023,0 123.013,-66.006 795.079,-465.046 795.079,-465.046 0,0 150.017,-66.007 12.002,-138.014 -138.015,-72.007 -825.083,-468.046 -825.083,-468.046 0,0 -120.013,-87.008 -252.025,0 -144.18,95.027 -720.496,450.144 -800.488,498.647 -49.118,29.783 -60.073,89.924 -6,124 z"
   style="fill:#ffffff"
   id="白_1_"
   inkscape:connector-curvature="0" />
</g><g
     id="M">
	<path
   id="path7"
   d="M 737.637,2719.066 964,2847.881 V 2110 c 0,0 8.75,-99.204 101.76,-51.199 C 1158.77,2106.806 1158,2211 1158,2211 l -9.833,737.672 235.833,133.135 v -767.903 c 0,0 29.794,-69.083 86.8,-39.08 57.006,30.003 87.008,105.011 90.009,138.014 C 1563.81,2445.841 1564,3180 1564,3180 l 220.585,124 5.999,-1061.91 c 0,0 7.249,-132.276 -133.765,-210.284 -141.014,-78.008 -783.078,-414.042 -783.078,-414.042 0,0 -161.165,-116.671 -152.603,120.353 8.562,237.024 16.499,980.949 16.499,980.949 z"
   style="fill:#ffffff"
   inkscape:connector-curvature="0" />
</g><g
     id="V">
	<path
   d="M 1879,3304 V 2237.592 c 0,0 9.662,-139.594 121.573,-206.989 121.863,-73.388 106.271,-59.474 106.271,-59.474 L 2108,2932.5 c 0,0 149.55,-100.207 357.55,-485.975 185.181,-343.446 263.042,-716.459 282.448,-847.992 l 194.528,-104.903 c 0,0 -11.543,604.794 -272.986,1061.944 C 2418.977,2993.698 2186.564,3113.543 1879,3304 Z"
   style="fill:#ffffff"
   id="白"
   inkscape:connector-curvature="0" />
</g><g
     id="plane2">
	<g
   id="g25">
		<clipPath
   id="遮罩_1_">
			<path
   d="m 890.333,1494.334 845.492,448.459 c 0,0 108.011,66.007 231.023,0 123.013,-66.006 795.079,-465.046 795.079,-465.046 0,0 150.017,-66.007 12.002,-138.014 -26.854,-14.011 314.917,-680.317 255.593,-713.56 -245.56,-137.602 -892.655,-462.563 -892.655,-462.563 0,0 -735.074,-87.008 -867.087,0 -124.017,81.737 -388.462,29.06 -561.056,135.014 -28.063,17.227 198.796,1064.927 187.609,1071.71 -49.118,29.783 -60.073,89.924 -6,124 z"
   id="遮罩"
   inkscape:connector-curvature="0" />
		</clipPath>
		<g
   clip-path="url(#遮罩_1_)"
   id="本體">
			<polygon
   id="polygon14"
   points="2173.84,1605.589 2355.913,1338.639 918,503 "
   style="fill:#ffffff" />
			<!--polygon style="fill:#FFFFFF;" points="918,503 2173.84,1605.589 2355.913,1338.639 			"/>-->
			<polygon
   id="polygon16"
   points="2274,1663 2212,1611 2262.582,1480.228 "
   style="fill:#f7130d" />
			<g
   id="g22">
				<polygon
   id="polygon18"
   points="1995.422,2137 2217.914,1474.314 918,503 2274,1402.573 2850,953 918,503 "
   style="fill:#ffffff" />
				<path
   id="path20"
   d="m 918,503 1077.422,1634 v 0 0 l 185.726,-675.03 13.552,43.412 L 917.636,503.487 v 0 l 0.7,-0.994 1380.372,862.835 -52.208,2.011 L 2849.626,952.52 2850,953 Z m 0,0 1946.787,386.514 50.193,9.965 -64.606,54 -560.947,468.857 -13.936,11.648 -15.352,-10.52 -1342.475,-919.957 0.7,-0.994 v 0 l 1314.718,951.501 15.352,11.111 -6.497,17.254 -246.515,654.621 85.043,28.553 -159.936,20.83 z"
   style="fill:#fa0f0c"
   inkscape:connector-curvature="0" />
			</g>
			
		</g>
	</g>
</g></g>
</svg>