<?xml version="1.0" encoding="UTF-8" standalone="no"?>
<!-- Generator: Adobe Illustrator 16.0.2, SVG Export Plug-In . SVG Version: 6.00 Build 0)  -->

<svg
   xmlns:dc="http://purl.org/dc/elements/1.1/"
   xmlns:cc="http://creativecommons.org/ns#"
   xmlns:rdf="http://www.w3.org/1999/02/22-rdf-syntax-ns#"
   xmlns:svg="http://www.w3.org/2000/svg"
   xmlns="http://www.w3.org/2000/svg"
   xmlns:sodipodi="http://sodipodi.sourceforge.net/DTD/sodipodi-0.dtd"
   xmlns:inkscape="http://www.inkscape.org/namespaces/inkscape"
   version="1.1"
   x="0px"
   y="0px"
   width="3648px"
   height="3928px"
   viewBox="0 0 3648 3928"
   style="enable-background:new 0 0 3648 3928;"
   xml:space="preserve"
   id="svg28"
   sodipodi:docname="satellite.svg"
   inkscape:version="0.92.4 (5da689c313, 2019-01-14)"
   inkscape:export-filename="C:\Code\MVCoin\MVCoin\icon\youtube.png"
   inkscape:export-xdpi="26.011875"
   inkscape:export-ydpi="26.011875"><metadata
   id="metadata34"><rdf:RDF><cc:Work
       rdf:about=""><dc:format>image/svg+xml</dc:format><dc:type
         rdf:resource="http://purl.org/dc/dcmitype/StillImage" /><dc:title /></cc:Work></rdf:RDF></metadata><defs
   id="defs32" /><sodipodi:namedview
   pagecolor="#ffffff"
   bordercolor="#666666"
   borderopacity="1"
   objecttolerance="10"
   gridtolerance="10"
   guidetolerance="10"
   inkscape:pageopacity="0"
   inkscape:pageshadow="2"
   inkscape:window-width="1920"
   inkscape:window-height="1057"
   id="namedview30"
   showgrid="false"
   inkscape:zoom="0.084968025"
   inkscape:cx="-1846.8579"
   inkscape:cy="2315.0463"
   inkscape:window-x="1912"
   inkscape:window-y="-8"
   inkscape:window-maximized="1"
   inkscape:current-layer="layer4" />
<g
   inkscape:groupmode="layer"
   id="layer1"
   inkscape:label="Circle"
   style="display:none"><circle
     id="path36"
     cx="1923.7112"
     cy="1919.9603"
     style="fill:#ffffff;stroke:#ff0000;stroke-width:250;stroke-miterlimit:4;stroke-dasharray:none"
     r="2072.8875" /><circle
     r="1777.4122"
     style="fill:#ffffff;stroke:#ff0000;stroke-width:102.80693817;stroke-miterlimit:4;stroke-dasharray:none"
     cy="1919.9603"
     cx="1923.7112"
     id="circle4622" /></g><g
   inkscape:groupmode="layer"
   id="layer2"
   inkscape:label="icon"
   style="display:inline"><path
     sodipodi:type="star"
     style="fill:#ffffff;fill-opacity:0.98387098;stroke:#ff0000;stroke-width:150;stroke-linecap:round;stroke-linejoin:round;stroke-miterlimit:4;stroke-dasharray:none"
     id="path4618"
     sodipodi:sides="6"
     sodipodi:cx="1921.1018"
     sodipodi:cy="2073.9324"
     sodipodi:r1="1618.0226"
     sodipodi:r2="1401.2487"
     sodipodi:arg1="0.52359878"
     sodipodi:arg2="1.0471976"
     inkscape:flatsided="true"
     inkscape:rounded="0"
     inkscape:randomized="0"
     d="M 3322.3505,2882.9437 1921.1018,3691.955 519.85314,2882.9437 519.85315,1264.9211 1921.1018,455.90979 3322.3505,1264.9211 Z"
     inkscape:export-xdpi="13.005938"
     inkscape:export-ydpi="13.005938" /></g><g
   inkscape:groupmode="layer"
   id="layer3"
   inkscape:label="Sticky"
   style="display:none"><g
     id="g4653"
     transform="translate(-54.939493,-18.496027)"
     style="fill:#ffcc00;stroke:#000000"><path
       inkscape:connector-curvature="0"
       id="rect4626"
       d="m 1214.5296,1310.9167 c -11.08,0 -20,8.92 -20,20 v 1523.0234 c 0,11.08 8.92,20 20,20 H 2227.68 l 529.873,-535.3086 V 1330.9167 c 0,-11.08 -8.92,-20 -20,-20 z"
       style="fill:#ffcc00;stroke:#000000;stroke-width:80;stroke-miterlimit:4;stroke-dasharray:none" /><path
       inkscape:connector-curvature="0"
       id="rect4598"
       d="m 2301.9848,2800.9407 396.3786,-400.4447 h -381.4173 c -8.2885,0 -14.9613,6.6727 -14.9613,14.9612 z"
       style="fill:#ffcc00;stroke:#000000;stroke-width:80;stroke-miterlimit:4;stroke-dasharray:none" /></g><path
     style="fill:#ffffff;stroke:#000000;stroke-width:42.89522171;stroke-linecap:butt;stroke-linejoin:miter;stroke-miterlimit:4;stroke-dasharray:none;stroke-opacity:1"
     d="m 1442.5849,1600.4949 h 957.0339"
     id="path4588"
     inkscape:connector-curvature="0" /><path
     inkscape:connector-curvature="0"
     id="path4590"
     d="m 1442.5849,1873.7351 h 957.0339"
     style="fill:#ffffff;stroke:#000000;stroke-width:42.89522171;stroke-linecap:butt;stroke-linejoin:miter;stroke-miterlimit:4;stroke-dasharray:none;stroke-opacity:1" /><path
     inkscape:connector-curvature="0"
     id="path4592"
     d="m 1442.5849,2146.9751 h 957.0339"
     style="fill:#ffffff;stroke:#000000;stroke-width:42.89522171;stroke-linecap:butt;stroke-linejoin:miter;stroke-miterlimit:4;stroke-dasharray:none;stroke-opacity:1" /><path
     style="fill:#ffffff;stroke:#000000;stroke-width:48.31984711;stroke-linecap:butt;stroke-linejoin:miter;stroke-miterlimit:4;stroke-dasharray:none;stroke-opacity:1"
     d="m 1442.5849,2420.2153 h 588.9825"
     id="path4594"
     inkscape:connector-curvature="0" /></g><g
   inkscape:groupmode="layer"
   id="layer4"
   inkscape:label="youtube"><g
     id="g850"
     transform="matrix(3.5986154,0,0,3.5986154,999.85239,1428.9087)"><path
       id="path836"
       d="M 501.45312,56.09375 C 495.55078,34.160156 478.25781,16.871094 456.32812,10.964844 416.26172,0 255.99609,0 255.99609,0 255.99609,0 95.734375,0 55.667969,10.546875 34.160156,16.449219 16.445312,34.164062 10.542969,56.09375 0,96.15625 0,179.24219 0,179.24219 c 0,0 0,83.5039 10.542969,123.14843 5.90625,21.92969 23.195312,39.22266 45.128906,45.12891 C 96.15625,358.48437 256,358.48437 256,358.48437 c 0,0 160.26172,0 200.32812,-10.54687 21.9336,-5.90234 39.22266,-23.19531 45.12891,-45.125 C 512,262.74609 512,179.66406 512,179.66406 c 0,0 0.42187,-83.50781 -10.54688,-123.57031 z m 0,0"
       inkscape:connector-curvature="0"
       style="fill:#ff0000" /><path
       id="path838"
       d="M 204.96875,256 338.23828,179.24219 204.96875,102.48438 Z m 0,0"
       inkscape:connector-curvature="0"
       style="fill:#ffffff" /></g></g>




</svg>