<?xml version="1.0" encoding="UTF-8" standalone="no"?>
<!-- Generator: Adobe Illustrator 16.0.2, SVG Export Plug-In . SVG Version: 6.00 Build 0)  -->

<svg
   xmlns:dc="http://purl.org/dc/elements/1.1/"
   xmlns:cc="http://creativecommons.org/ns#"
   xmlns:rdf="http://www.w3.org/1999/02/22-rdf-syntax-ns#"
   xmlns:svg="http://www.w3.org/2000/svg"
   xmlns="http://www.w3.org/2000/svg"
   xmlns:sodipodi="http://sodipodi.sourceforge.net/DTD/sodipodi-0.dtd"
   xmlns:inkscape="http://www.inkscape.org/namespaces/inkscape"
   version="1.1"
   x="0px"
   y="0px"
   width="3648px"
   height="3928px"
   viewBox="0 0 3648 3928"
   style="enable-background:new 0 0 3648 3928;"
   xml:space="preserve"
   id="svg28"
   sodipodi:docname="satellite.svg"
   inkscape:version="0.92.5 (2060ec1f9f, 2020-04-08)"
   inkscape:export-filename="D:\Code\MVCoin\MVCoin\icon\bitcoin.png"
   inkscape:export-xdpi="26.011875"
   inkscape:export-ydpi="26.011875"><metadata
   id="metadata34"><rdf:RDF><cc:Work
       rdf:about=""><dc:format>image/svg+xml</dc:format><dc:type
         rdf:resource="http://purl.org/dc/dcmitype/StillImage" /><dc:title /></cc:Work></rdf:RDF></metadata><defs
   id="defs32" /><sodipodi:namedview
   pagecolor="#ffffff"
   bordercolor="#666666"
   borderopacity="1"
   objecttolerance="10"
   gridtolerance="10"
   guidetolerance="10"
   inkscape:pageopacity="0"
   inkscape:pageshadow="2"
   inkscape:window-width="1920"
   inkscape:window-height="1057"
   id="namedview30"
   showgrid="false"
   inkscape:zoom="0.084968025"
   inkscape:cx="-5813.0557"
   inkscape:cy="2315.0463"
   inkscape:window-x="1912"
   inkscape:window-y="-8"
   inkscape:window-maximized="1"
   inkscape:current-layer="layer6" />
<g
   inkscape:groupmode="layer"
   id="layer1"
   inkscape:label="Circle"
   style="display:none"><circle
     id="path36"
     cx="1923.7112"
     cy="1919.9603"
     style="fill:#ffffff;stroke:#ff0000;stroke-width:250;stroke-miterlimit:4;stroke-dasharray:none"
     r="2072.8875" /><circle
     r="1777.4122"
     style="fill:#ffffff;stroke:#ff0000;stroke-width:102.80693817;stroke-miterlimit:4;stroke-dasharray:none"
     cy="1919.9603"
     cx="1923.7112"
     id="circle4622" /></g><g
   inkscape:groupmode="layer"
   id="layer2"
   inkscape:label="icon"
   style="display:inline"><path
     sodipodi:type="star"
     style="fill:#ffffff;fill-opacity:0.98387098;stroke:#ff0000;stroke-width:150;stroke-linecap:round;stroke-linejoin:round;stroke-miterlimit:4;stroke-dasharray:none"
     id="path4618"
     sodipodi:sides="6"
     sodipodi:cx="1921.1018"
     sodipodi:cy="2073.9324"
     sodipodi:r1="1618.0226"
     sodipodi:r2="1401.2487"
     sodipodi:arg1="0.52359878"
     sodipodi:arg2="1.0471976"
     inkscape:flatsided="true"
     inkscape:rounded="0"
     inkscape:randomized="0"
     d="M 3322.3505,2882.9437 1921.1018,3691.955 519.85314,2882.9437 519.85315,1264.9211 1921.1018,455.90979 3322.3505,1264.9211 Z"
     inkscape:export-xdpi="13.005938"
     inkscape:export-ydpi="13.005938" /></g><g
   inkscape:groupmode="layer"
   id="layer3"
   inkscape:label="Sticky"
   style="display:none"><g
     id="g4653"
     transform="translate(-54.939493,-18.496027)"
     style="fill:#ffcc00;stroke:#000000"><path
       inkscape:connector-curvature="0"
       id="rect4626"
       d="m 1214.5296,1310.9167 c -11.08,0 -20,8.92 -20,20 v 1523.0234 c 0,11.08 8.92,20 20,20 H 2227.68 l 529.873,-535.3086 V 1330.9167 c 0,-11.08 -8.92,-20 -20,-20 z"
       style="fill:#ffcc00;stroke:#000000;stroke-width:80;stroke-miterlimit:4;stroke-dasharray:none" /><path
       inkscape:connector-curvature="0"
       id="rect4598"
       d="m 2301.9848,2800.9407 396.3786,-400.4447 h -381.4173 c -8.2885,0 -14.9613,6.6727 -14.9613,14.9612 z"
       style="fill:#ffcc00;stroke:#000000;stroke-width:80;stroke-miterlimit:4;stroke-dasharray:none" /></g><path
     style="fill:#ffffff;stroke:#000000;stroke-width:42.89522171;stroke-linecap:butt;stroke-linejoin:miter;stroke-miterlimit:4;stroke-dasharray:none;stroke-opacity:1"
     d="m 1442.5849,1600.4949 h 957.0339"
     id="path4588"
     inkscape:connector-curvature="0" /><path
     inkscape:connector-curvature="0"
     id="path4590"
     d="m 1442.5849,1873.7351 h 957.0339"
     style="fill:#ffffff;stroke:#000000;stroke-width:42.89522171;stroke-linecap:butt;stroke-linejoin:miter;stroke-miterlimit:4;stroke-dasharray:none;stroke-opacity:1" /><path
     inkscape:connector-curvature="0"
     id="path4592"
     d="m 1442.5849,2146.9751 h 957.0339"
     style="fill:#ffffff;stroke:#000000;stroke-width:42.89522171;stroke-linecap:butt;stroke-linejoin:miter;stroke-miterlimit:4;stroke-dasharray:none;stroke-opacity:1" /><path
     style="fill:#ffffff;stroke:#000000;stroke-width:48.31984711;stroke-linecap:butt;stroke-linejoin:miter;stroke-miterlimit:4;stroke-dasharray:none;stroke-opacity:1"
     d="m 1442.5849,2420.2153 h 588.9825"
     id="path4594"
     inkscape:connector-curvature="0" /></g><g
   inkscape:groupmode="layer"
   id="layer4"
   inkscape:label="youtube"
   style="display:none"><g
     id="g850"
     transform="matrix(3.5986154,0,0,3.5986154,999.85239,1428.9087)"><path
       id="path836"
       d="M 501.45312,56.09375 C 495.55078,34.160156 478.25781,16.871094 456.32812,10.964844 416.26172,0 255.99609,0 255.99609,0 255.99609,0 95.734375,0 55.667969,10.546875 34.160156,16.449219 16.445312,34.164062 10.542969,56.09375 0,96.15625 0,179.24219 0,179.24219 c 0,0 0,83.5039 10.542969,123.14843 5.90625,21.92969 23.195312,39.22266 45.128906,45.12891 C 96.15625,358.48437 256,358.48437 256,358.48437 c 0,0 160.26172,0 200.32812,-10.54687 21.9336,-5.90234 39.22266,-23.19531 45.12891,-45.125 C 512,262.74609 512,179.66406 512,179.66406 c 0,0 0.42187,-83.50781 -10.54688,-123.57031 z m 0,0"
       inkscape:connector-curvature="0"
       style="fill:#ff0000" /><path
       id="path838"
       d="M 204.96875,256 338.23828,179.24219 204.96875,102.48438 Z m 0,0"
       inkscape:connector-curvature="0"
       style="fill:#ffffff" /></g></g><g
   inkscape:groupmode="layer"
   id="layer5"
   inkscape:label="covid19"
   style="display:none"><g
     id="g4558"
     transform="matrix(3.9467065,0,0,3.9467065,964.89591,1117.7244)"><g
       id="XMLID_107_"><g
         id="g4534"><path
           id="path4532"
           d="m 484.426,222.033 c 1.77,22.9 -14.34,43.23 -35.97,45.4 -16.56,1.66 -31.54,-7.81 -38.46,-22.6 l -19.63,1.73 -14.82,7.15 c -3.39,1.63 -5.67,4.87 -6.19,8.59 -1.4,10.03 -3.94,19.69 -7.47,28.87 -1.2,3.11 -0.99,6.58 0.64,9.48 l 5.28,9.44 14.68,9.85 c 7.74,-2.96 16.75,-2.25 24.16,2.72 12.56,8.43 15.57,25.78 6.23,37.99 -8.04,10.52 -22.99,13.41 -34.37,6.65 -7.25,-4.3 -11.63,-11.44 -12.7,-19.07 l -16.27,-10.91 -10.24,-1.25 c -3.52,-0.43 -7.02,0.78 -9.58,3.23 -8.64,8.23 -18.4,15.3 -29.01,20.96 -3.57,1.9 -5.86,5.55 -6.11,9.58 l -1.3,20.74 6.44,25.55 c 10.96,3.06 20.02,11.75 23,23.57 4.5,17.87 -6.6,36 -24.7,40.03 -16.33,3.64 -33.08,-5.88 -38.27,-21.79 -4.04,-12.42 -0.33,-25.26 8.21,-33.65 l -6.47,-25.7 -9.99,-16.06 c -2.68,-4.31 -7.42,-6.86 -12.5,-6.85 -0.03,0 -0.05,0 -0.08,0 -8.75,0 -17.31,-0.87 -25.59,-2.5 -4.93,-0.98 -10.02,0.58 -13.48,4.23 l -13.2,13.93 -14.78,30.66 c 3.46,7.03 3.77,15.52 0.11,23.13 -6.58,13.64 -23.36,19.06 -36.77,11.52 -11.48,-6.47 -16.45,-20.75 -11.45,-32.95 3.41,-8.32 10.48,-13.88 18.48,-15.74 l 14.87,-30.86 2.92,-20.71 c 0.53,-3.82 -0.93,-7.67 -3.93,-10.09 -11.83,-9.6 -21.97,-21.19 -29.9,-34.27 -1.97,-3.25 -5.51,-5.22 -9.31,-5.25 l -20.68,-0.2 -22.64,7.12 c -1.59,14.08 -11.23,26.59 -25.61,31.11 -19.32,6.08 -39.9,-4.54 -46.17,-23.74 -6.27,-19.19 4.32,-40.18 23.49,-46.52 13.42,-4.44 27.52,-0.75 37.06,8.32 l 24.03,-7.56 17.55,-12.51 c 2.61,-1.85 4,-4.95 3.74,-8.13 -0.29,-3.53 -0.44,-7.09 -0.44,-10.69 0,-19.56 4.3,-38.13 11.98,-54.83 1.12,-2.45 1.09,-5.27 -0.09,-7.69 l -5.2,-10.63 -14.11,-10.65 c -7.9,2.53 -16.85,1.32 -23.97,-4.05 -12.08,-9.12 -14.12,-26.61 -4.12,-38.28 8.61,-10.05 23.7,-12.11 34.69,-4.73 7,4.7 10.98,12.06 11.62,19.74 l 15.64,11.8 15.76,2.81 c 11.47,-10.65 24.84,-19.28 39.53,-25.33 l 3.7,-22.48 -4.67,-23.22 c -13.82,-3.56 -25.04,-14.15 -28.06,-28.27 -4.26,-19.95 9.45,-39.38 30.63,-43.39 21.17,-4.01 41.79,8.9 46.05,28.85 3.19,14.93 -3.68,29.56 -16.22,37.66 l 4.41,21.9 10.83,17.28 c 0.71,1.13 1.95,1.81 3.28,1.81 h 0.02 c 24.8,0 48.02,6.9 67.85,18.88 1.09,0.65 2.43,0.74 3.58,0.2 l 16.96,-7.86 19.8,-21.42 c -1.19,-7.68 1,-15.82 6.69,-21.97 10.28,-11.11 27.88,-11.39 38.5,-0.28 9.31,9.75 9.67,25.3 0.83,35.48 -5.72,6.59 -13.93,9.63 -21.95,9.03 l -19.8,21.42 -6.43,17.3 c -0.45,1.2 -0.25,2.54 0.5,3.58 7.81,10.72 14.04,22.66 18.34,35.48 1.19,3.52 3.99,6.26 7.57,7.27 l 16.1,4.51 20.92,-1.85 c 5.13,-14.79 17.94,-25.98 33.67,-27.56 21.63,-2.17 40.6,14.64 42.36,37.54 z"
           inkscape:connector-curvature="0"
           style="fill:#eb5569" /></g></g><g
       id="XMLID_8_"><g
         id="g4539"><circle
           id="circle4537"
           r="97.519997"
           cy="243.983"
           cx="238.936"
           style="fill:#f58a97" /></g></g><path
       id="path4542"
       d="m 171.14,243.983 c 0,-48.807 35.852,-89.238 82.658,-96.395 -4.846,-0.741 -9.809,-1.125 -14.862,-1.125 -53.86,0 -97.52,43.66 -97.52,97.52 0,53.86 43.66,97.52 97.52,97.52 5.053,0 10.016,-0.384 14.862,-1.125 -46.805,-7.158 -82.658,-47.589 -82.658,-96.395 z"
       inkscape:connector-curvature="0"
       style="fill:#f07281" /><g
       id="g4556"
       style="fill:#eb5569"><circle
         id="circle4544"
         r="27.771"
         cy="38.921001"
         cx="74.852997" /><circle
         id="circle4546"
         r="18.343"
         cy="404.98599"
         cx="67.262001" /><circle
         id="circle4548"
         r="27.018"
         cy="435.11801"
         cx="404.05099" /><circle
         id="circle4550"
         r="25.188999"
         cy="217.089"
         cx="209.002" /><circle
         id="circle4552"
         r="17.145"
         cy="295.328"
         cx="229.222" /><circle
         id="circle4554"
         r="14.397"
         cy="243.983"
         cx="283.05801" /></g></g></g><g
   inkscape:groupmode="layer"
   id="layer6"
   inkscape:label="bitcoin"><g
     id="g98"
     transform="matrix(3.0228198,0,0,3.0228198,1132.7578,1365.25)"><g
       id="g44">
</g><g
       id="g46">
</g><g
       id="g48">
</g><g
       id="g50">
</g><g
       id="g52">
</g><g
       id="g54">
</g><g
       id="g56">
</g><g
       id="g58">
</g><g
       id="g60">
</g><g
       id="g62">
</g><g
       id="g64">
</g><g
       id="g66">
</g><g
       id="g68">
</g><g
       id="g70">
</g><g
       id="g72">
</g></g><path
     id="path42"
     d="m 2611.3892,1776.6795 c -24.797,-66.181 -69.7956,-123.5984 -135.0811,-172.4679 -37.855,-28.3261 -87.3594,-53.7174 -146.1812,-76.813 l 65.1146,-250.2578 -205.8128,-53.5871 -62.9451,241.7913 -132.3172,-34.4073 62.9043,-241.7913 -205.8128,-53.5912 -62.945,241.7913 -436.9275,-113.7276 -52.9521,203.4723 57.8855,15.0972 c 38.5346,9.997 63.8405,20.3725 75.7912,30.9637 11.7799,10.5465 19.013,22.5827 21.4797,35.9826 2.6783,13.4405 -1.9131,41.8521 -13.2289,85.4463 l -213.4652,820.0561 c -11.1449,42.829 -21.1378,69.7508 -29.9421,80.5537 -8.8043,10.9291 -20.8406,17.8651 -36.3204,20.9668 -15.5246,3.0609 -61.5,-5.2753 -100.0347,-15.2682 l -68.85938,144.8623 c 15.78098,23.2218 32.45348,45.7638 50.01738,67.5406 l 363.8186,94.674 -44.4898,170.8926 c 62.5624,33.6869 128.9551,61.1174 198.4088,81.5347 l 51.7595,-198.8769 127.852,33.3043 c 1.4898,0.3418 3.0202,0.639 4.51,1.0216 l -50.5709,194.4116 c 52.4799,8.1653 106.2421,12.3741 161.0219,12.3741 18.7565,0 37.3868,-0.5088 55.8869,-1.4898 l 42.6173,-163.7043 c 68.7739,8.6782 127.9782,9.997 177.2303,3.7001 94.8898,-12.077 174.5073,-44.8276 238.6042,-98.3741 64.1377,-53.4202 106.3724,-119.1738 126.7042,-197.2608 16.8434,-65.2449 16.7131,-128.4463 -0.2972,-189.6085 -17.0958,-60.9465 -48.1043,-113.3043 -93.1883,-156.4305 -30.8782,-30.4956 -78.6406,-63.6696 -142.8637,-98.9723 69.9217,-5.1451 128.5725,-19.3101 176.5912,-42.4464 47.6769,-23.2666 87.6566,-53.8883 119.9392,-92.1667 32.0261,-38.1073 54.5274,-81.4898 67.1131,-129.9767 17.393,-66.6899 13.6522,-133.1273 -11.0145,-199.2188 z m -487.9706,770.7999 c -13.2289,51.1653 -39.0882,91.2711 -77.2811,120.4072 -38.2782,28.9651 -79.4912,44.0217 -123.5129,44.9579 -43.9769,0.9362 -97.2261,-6.6348 -159.6216,-22.884 l -107.3086,-27.9434 c -35.8523,-9.3132 -57.1203,-16.9696 -64.2232,-22.9247 -7.0622,-6.0404 -11.0146,-14.2912 -12.0362,-25.0941 -0.8914,-8.5479 4.2536,-35.1318 15.2681,-80.4682 l 82.8535,-318.352 190.2435,49.5086 c 83.5332,21.7768 143.5435,45.6783 180.2506,71.7087 36.6215,25.9448 61.2028,56.8231 73.6665,92.3375 12.4636,35.6 13.0579,75.1116 1.7014,118.7465 z m 128.2754,-609.2651 c -9.6551,37.2159 -28.4116,67.4143 -56.2696,90.5506 -27.7318,23.2218 -63.7144,36.5769 -107.7319,40.0652 -44.0623,3.5291 -108.2448,-5.6131 -192.6246,-27.5608 l -161.197,-41.9783 93.3145,-358.5433 161.1969,41.9376 c 94.2507,24.5406 158.0465,47.3797 191.5623,68.4767 33.4711,21.097 56.2696,47.974 68.5622,80.3013 12.1217,32.4454 13.3103,68.0046 3.1872,106.751 z"
     style="fill:#ff0000;stroke-width:4.0704236"
     inkscape:connector-curvature="0" /></g>




</svg>